<svg xmlns="http://www.w3.org/2000/svg" xmlns:xlink="http://www.w3.org/1999/xlink" viewBox="0 0 1080 1080"><defs><style>.cls-1{fill:url(#radial-gradient);}.cls-2{fill:#fff;}</style><radialGradient id="radial-gradient" cx="8.95" cy="1080.05" r="1590.44" gradientUnits="userSpaceOnUse"><stop offset="0" stop-color="#2196f3"/><stop offset="1" stop-color="#0d47a1"/></radialGradient></defs><title>Logo</title><g id="Layer_1" data-name="Layer 1"><rect class="cls-1" width="1080" height="1080"/></g><g id="trace"><path class="cls-2" d="M654.71,682.18c-74.58-47.29-30.93-93-18.1-95.86l-44.23-28a55.78,55.78,0,0,1-89.75,22.35l-48.77,76.93c62.45-31.95,145,25.9,125.93,56C562.36,741,532.07,676,532.07,676L479,759.71s58.65-28.85,69.25-16.63-20.14,40.43-20.14,40.43c96.19,33.47,224.22-6.43,311.65-92.25C839.74,691.26,735.84,733.62,654.71,682.18Z"/><path class="cls-2" d="M668.55,410.6c32.54,0-6.19,60.43-6.19,60.43h99.15s-55.77-34.09-51.13-49.58,44.93-4.65,44.93-4.65C732.07,317.65,629.82,230.89,510.53,203c0,0,91.4,65.07,91.4,161.13,0,88.31-62,75.91-71.26,66.62v53.46a55.72,55.72,0,0,1,65.07,55,56.41,56.41,0,0,1-.55,7.74h93.5C628.27,511.31,632.92,410.6,668.55,410.6Z"/><path class="cls-2" d="M494.89,572a55.77,55.77,0,0,1,26.76-85.53L477.2,402.58c-3.21,70.08-94.38,113.1-111.06,81.61-15.22-28.75,56.3-22.8,56.3-22.8L376,373.77s-4,65.24-19.88,68.38S331,404.62,331,404.62C254.27,471.57,225.45,602.53,256.64,721c0,0,14.72-111.23,99.61-156.19,78-41.33,96.09,19.23,92.23,31.8Z"/></g></svg>